<?xml version="1.0" encoding="utf-8"?>
<!-- Generator: Adobe Illustrator 21.1.0, SVG Export Plug-In . SVG Version: 6.00 Build 0)  -->
<svg version="1.1" id="Layer_1" xmlns="http://www.w3.org/2000/svg" xmlns:xlink="http://www.w3.org/1999/xlink" x="0px" y="0px"
	 viewBox="0 0 71.7 100" style="enable-background:new 0 0 71.7 100;" xml:space="preserve">
<polygon points="23,23 4.6,23 23,4.6 "/>
<path d="M29.2,73.3c4.3-1.7,9-3.1,13.5-4.2c-2.8-3.2-5.6-7.3-7.9-11.5C33.3,62.8,31.3,68.3,29.2,73.3z"/>
<path d="M33.7,40.1c0,0-0.1,0-0.2,0.1c-0.2,0.1-0.4,0.2-0.5,0.5c-0.5,1.2-0.1,3.6,0.7,6.2C34.4,42.4,34,40.6,33.7,40.1z"/>
<path d="M27.6,0v27.6H0V100h71.7V0H27.6z M58.8,74.4c-1.2,1.6-2.7,2.5-4.6,2.5c-2.5,0-5.4-1.6-8.7-4.7c-5.9,1.2-12.7,3.4-18.3,5.8
	c-1.7,3.7-3.4,6.6-4.9,8.8c-2.1,3-3.9,4.4-5.8,4.4c-0.7,0-1.4-0.2-2-0.7c-2.2-1.6-2.4-3.4-2.3-4.6c0.4-3.4,4.5-6.9,12.4-10.5
	c3.1-6.8,6.1-15.2,7.8-22.3c-2.1-4.5-4.1-10.3-2.6-13.8c0.5-1.2,1.4-2,2.6-2.4c0.5-0.2,0.9-0.2,1.4-0.2c1,0,2,0.5,2.6,1.3
	c0.6,0.8,2.5,3.1-0.3,14.8c2.8,5.8,6.7,11.6,10.5,15.7c2.7-0.5,5.1-0.7,7-0.7c3.2,0,5.2,0.8,6,2.3C60.2,71.2,60,72.7,58.8,74.4z"/>
<path d="M15.6,86.2c0,0.2-0.1,0.7,0.9,1.4c0.3-0.1,2.1-0.9,5.5-7.1C17.5,83,15.7,85,15.6,86.2z"/>
<path d="M49.9,71.3c1.7,1.3,3.2,2,4.3,2c0.5,0,1.1-0.1,1.8-1c0.3-0.4,0.4-0.7,0.5-0.9c-0.2-0.1-1-0.4-2.8-0.4
	C52.5,71.1,51.3,71.2,49.9,71.3z"/>
</svg>
